<svg width="48" height="48" viewBox="0 0 48 48" fill="none" xmlns="http://www.w3.org/2000/svg">
<rect width="48" height="48" rx="8.88889" fill="white"/>
<path d="M10 17H17C19.2 17 21 18.8 21 21C21 23.2 19.2 25 17 25H13V30H10V17ZM13 22.5H16.5C17.3 22.5 18 21.8 18 21C18 20.2 17.3 19.5 16.5 19.5H13V22.5ZM22 26.5C22 26.5 23.5 28.5 26 28.5C27.5 28.5 28.5 27.8 28.5 26.8C28.5 25.6 27.2 25.2 25.5 24.7C23.3 24 21.5 23 21.5 20.8C21.5 18.6 23.3 17 26 17C28.5 17 30 18.5 30 18.5L28.5 20.5C28.5 20.5 27.3 19.3 26 19.3C24.8 19.3 24.2 20 24.2 20.7C24.2 21.8 25.4 22.2 27 22.7C29.3 23.4 31.2 24.4 31.2 26.8C31.2 29.2 29.2 31 26 31C23 31 21 28.8 21 28.8L22 26.5Z" fill="url(#paint0_linear_js)"/>
<defs>
<linearGradient id="paint0_linear_js" x1="8" y1="35.5" x2="38" y2="10.5" gradientUnits="userSpaceOnUse">
<stop stop-color="#989FFF"/>
<stop offset="1" stop-color="#29A2FF"/>
</linearGradient>
</defs>
</svg>
